<?xml version="1.0" encoding="utf-8"?>
<!-- Generator: Adobe Illustrator 24.0.1, SVG Export Plug-In . SVG Version: 6.00 Build 0)  -->
<svg version="1.1" id="Layer_1" xmlns="http://www.w3.org/2000/svg" xmlns:xlink="http://www.w3.org/1999/xlink" x="0px" y="0px"
	 viewBox="0 0 820 262.4" style="enable-background:new 0 0 820 262.4;" xml:space="preserve">
<style type="text/css">
	.st0{fill:#F7F7F7;}
	.st1{enable-background:new    ;}
	.st2{fill:#353535;}
</style>
<title>Logo</title>
<path class="st0" d="M83.8,131.2c-0.7-53.5,32-101.8,81.9-121.1C182.6,3.4,201.1,0,221.3,0c20,0,38.5,3.4,55.4,10.1
	c16.3,6.3,31.1,15.8,43.7,27.9c12.2,11.9,21.9,26,28.5,41.7c6.9,16.3,10.4,33.9,10.2,51.6c0.1,17.7-3.3,35.3-10.2,51.6
	c-6.6,15.7-16.3,29.9-28.5,41.7c-12.6,12.1-27.4,21.5-43.7,27.8c-16.9,6.7-35.4,10.1-55.4,10.1c-20.2,0-38.7-3.4-55.6-10.1
	C115.9,233,83.3,184.7,83.8,131.2L83.8,131.2z M151.4,131.2c-0.1,9.4,1.8,18.7,5.6,27.4c7.2,16.5,20.7,29.5,37.4,36.1
	c17.3,6.8,36.5,6.8,53.7,0c8.3-3.3,15.9-8.2,22.4-14.3c6.5-6.2,11.7-13.6,15.3-21.8c7.5-17.5,7.5-37.3,0-54.7
	c-3.6-8.2-8.8-15.6-15.3-21.8c-6.5-6.2-14.1-11-22.4-14.4c-17.3-6.8-36.5-6.8-53.8,0c-16.7,6.7-30.2,19.6-37.4,36.1
	C153.2,112.4,151.3,121.8,151.4,131.2z"/>
<path class="st0" d="M431.6,102.8H525v-96h64.6v248.7H525V152.9h-93.4v102.6H367V6.9h64.6L431.6,102.8z"/>
<path class="st0" d="M597.4,223.8c0-5.2,1-10.3,3-15c6-14.3,20.1-23.7,35.6-23.6c10.3,0,20.1,4,27.4,11.2c3.5,3.5,6.3,7.7,8.2,12.4
	c4,9.6,4,20.4,0,30c-3.8,9.3-11.3,16.8-20.6,20.6c-9.6,4-20.4,4-30,0c-9.3-3.8-16.8-11.3-20.6-20.6
	C598.4,234.1,597.3,229,597.4,223.8z M605,171.1V6.9h62v164.2H605z"/>
<g class="st1">
	<path class="st2" d="M77.2,142.9c1.4,0.8,2.7,1.2,4,1.3c1.3,0.1,2.6,0.2,3.9,0.1c1.5,0,2.4,0.2,2.4,0.6c0.1,0.4-0.6,0.9-1.9,1.3
		c-6.2,2.1-12.1,4.9-17.7,8.3c-5.6,3.4-10.9,7.4-15.8,11.9c-4.9,4.5-9.3,9.4-13.4,14.6c-4,5.2-7.6,10.6-10.8,16.2
		c-3.2,5.7-5.9,11.7-8,18c-2.1,6.3-3.1,12.7-3.2,19.4c0,2.1,0.1,4.3,0.3,6.6c0.2,2.3,0.7,4.4,1.5,6.3c0.8,1.9,2,3.5,3.6,4.7
		c1.6,1.2,3.8,1.8,6.5,1.8c3.8,0,7.6-0.7,11.2-2.1c3.6-1.4,7-3.1,10.1-5.3c4.1-2.8,8-6,11.5-9.6c3.5-3.6,6.8-7.5,9.7-11.7
		c2.9-4.2,5.6-8.5,7.9-13c2.3-4.5,4.5-9.1,6.4-13.8c-1.4-2.1-2.5-4.3-3.2-6.8c-0.7-2.5-1-5.2-1-8.2c0.1-6.5,1.2-13,3.5-19.5
		c2.3-6.5,4.9-12.6,7.9-18.1c0.5-0.8,1.2-1.2,2.2-1.2c1,0,2,0.3,3,0.7c1,0.5,2,1.1,2.8,1.8c0.8,0.8,1.3,1.4,1.5,2.1
		c1.3,3.8,2.1,7.9,2.2,12.1c0.1,4.2-0.2,8.5-0.8,12.8c-0.7,4.3-1.6,8.5-2.7,12.6c-1.2,4.1-2.4,8-3.7,11.6l-0.5,1.4
		c3,1.6,7,2.6,12.1,3c5,0.4,10.1,0.4,15.2-0.2c2.4-0.2,3.9-0.3,4.4-0.2c0.6,0.1,0.6,0.2,0.3,0.4c-0.4,0.2-1,0.5-2,0.8
		c-1,0.4-1.7,0.6-2.2,0.8c-0.7,0.3-1.7,0.8-2.8,1.4c-1.2,0.7-2.3,1.6-3.4,2.9c-0.8,1-1.9,1.6-3.5,2c-3.6,0.4-7.2,0.3-10.8-0.4
		c-3.6-0.7-7-2-10-3.8c-3.6,8.4-8.1,16.3-13.4,23.9c-5.3,7.6-11.4,14.2-18.5,19.9c-3.4,2.7-7.5,5.1-12.3,7c-4.8,2-9.7,3.1-14.7,3.5
		c-5,0.3-9.7-0.4-14.1-2.2c-4.5-1.8-8-5.1-10.6-9.8c-2.8-5-4.1-10.5-4.1-16.5c0-6,0.9-12,2.7-18.1c1.8-6,4.1-11.8,7-17.4
		c2.9-5.5,5.8-10.4,8.7-14.7c6-8.6,12.8-16.3,20.4-23.2c7.5-6.9,16-12.4,25.4-16.4C72.7,141.5,75,141.6,77.2,142.9z M93,174
		c-0.3,1.1-0.5,2-0.6,2.5L93,174z"/>
	<path class="st2" d="M124.3,199.2c3.1-3.6,5.8-6.4,8.2-8.4c2.4-2,4.6-3.4,6.7-4.1c2.1-0.7,4.1-0.7,6,0c1.9,0.7,4,1.9,6.1,3.8l2.1-4
		c0.5-0.8,1.4-1.2,2.6-1.1c1.3,0.1,2.5,0.5,3.7,1.1c1.2,0.7,2.2,1.5,2.9,2.5c0.7,1,0.7,1.9,0.2,2.7c-0.5,0.7-1.3,2.4-2.5,5
		c-1.2,2.6-2.4,5.6-3.7,9c-1.3,3.4-2.5,6.7-3.5,10c-1,3.3-1.6,5.9-1.8,7.9c-0.1,0.2-0.1,0.5-0.1,0.8c0,0.3,0.1,0.7,0.1,1
		c1.8-1.1,3.8-2.7,6-4.7c2.2-2,4.4-3.9,6.6-6c2.1-2,4.1-3.9,6-5.7c1.9-1.8,3.3-3.2,4.3-4.2c0.8-0.7,1.5-1.3,2.2-1.6
		c0.6-0.3,1.3-0.6,1.9-0.9c0.6-0.3,1.3-0.6,2.1-0.9c0.7-0.3,1.6-0.9,2.5-1.6c0.6-0.5,1.1-0.7,1.4-0.5c0.3,0.1,0.2,0.6-0.3,1.4
		c-3.7,6.1-7.8,12-12.1,17.8c-1.2,1.5-2.5,3.3-4,5.3c-1.5,2-3.1,3.9-4.9,5.6c-1.8,1.7-3.7,3.1-5.7,4.1c-2,1-4.1,1.3-6.4,0.8
		c-4-0.6-6.7-1.9-8.1-3.7c-1.4-1.9-1.9-4.2-1.5-7c-1.9,3.4-3.8,6.5-5.8,9.3c-1.9,2.8-3.9,4.9-5.9,6.3c-7,5.1-12.7,4.1-17.1-3.2
		c-0.9-1.5-1.5-3.4-1.8-5.9c-0.3-2.4-0.1-5.2,0.6-8.4c0.8-3.1,2.1-6.6,4.1-10.4C117.7,207.5,120.5,203.5,124.3,199.2z M129,225.8
		c3.8-5,7.5-10.2,10.9-15.7c3.4-5.5,6.6-11,9.7-16.5c-1.4-0.1-3.1,0.5-5.1,1.9c-2,1.3-3.9,2.9-5.8,4.6c-1.9,1.8-3.6,3.5-5.1,5.2
		c-1.6,1.7-2.6,2.9-3.1,3.6c-1.2,1.6-2.5,3.7-4,6.2c-1.5,2.5-2.8,5.1-4.1,7.7c-1.2,2.6-2.2,5.1-2.9,7.4c-0.7,2.3-0.7,3.9-0.2,5
		c0.7,0.9,1.8,0.6,3.1-1C123.8,232.5,126,229.7,129,225.8z"/>
	<path class="st2" d="M250.5,198.6c0.6-0.4,1.2-0.7,1.7-0.9c0.5-0.2,1.1-0.4,1.7-0.6c0.6-0.2,1.3-0.5,2.1-0.9s1.8-1,2.9-1.7
		c1.3-1,2.1-1.4,2.4-1.1c0.2,0.3-0.1,1-1.1,2.3c-1.9,2.9-4.3,6.1-7.1,9.5c-2.8,3.4-5.7,6.7-8.7,9.8c-3,3.1-6,5.8-9,8.1
		c-3,2.3-5.7,3.7-8,4.3c-3.6,0.9-7,0.8-10.4-0.3c-3.4-1.1-5.8-2.6-7.2-4.7c-1.1-1.5-1.9-3.7-2.4-6.4c-0.5-2.7-0.7-5.3-0.7-7.7
		c-0.1-2,1-3.6,3.4-4.9c1.3-0.8,2.7-1.8,4.4-3c1.7-1.3,3.3-2.7,4.9-4.2c1.6-1.6,3-3.3,4.2-5.1c1.3-1.8,2.1-3.7,2.5-5.6
		c-3.1,1.2-6.1,3.1-9,5.8c-2.9,2.7-5.5,5.5-7.7,8.2c-2.3,2.8-4.6,6-6.8,9.4c-2.3,3.5-4.4,6.7-6.3,9.9c-1.9,3.1-3.5,5.9-4.9,8.4
		c-1.3,2.4-2.2,4-2.5,4.7c-0.6,1.4-1.7,2.3-3.1,2.7c-1.4,0.4-2.9,0.5-4.3,0.1c-1.4-0.3-2.6-0.8-3.5-1.5c-0.9-0.7-1.2-1.5-0.9-2.4
		l12.9-29.2c-2.7,3.1-5.6,6.1-8.6,8.9c-3,2.8-6.3,5.4-9.7,7.8c-1.2,1-2.5,1.9-3.7,2.7c-1.2,0.8-2.2,1.4-2.9,1.8
		c-0.7,0.4-1,0.5-1.1,0.2c0-0.3,0.5-1.1,1.6-2.4c2.4-2.9,4.2-5.3,5.4-7.3c1.2-2,2-3.8,2.4-5.4c0.2-1.4,1.4-3.3,3.5-5.7
		c2.2-2.3,4.7-5.2,7.7-8.5c3-3.3,6.2-7.2,9.6-11.5c3.4-4.3,6.6-9.2,9.5-14.6c1.7-4.5,3.3-9.1,4.8-13.7c1.5-4.6,2.9-9.3,4.3-14
		c0.3-0.8,0.9-1.1,1.9-1c1,0.1,2.1,0.6,3.2,1.4c1.1,0.8,2.1,1.9,3.1,3.1s1.4,2.6,1.4,4c0,1.8-0.2,3.5-0.6,5.3
		c-0.4,1.8-1,3.5-1.7,5.2c-0.7,1.7-1.4,3.1-2.2,4.3c-0.8,1.2-1.4,2.2-1.9,2.9c-0.8,2.3-1.5,4.2-2,5.9c-0.6,1.6-1.2,3.2-1.8,4.7
		c-0.6,1.5-1.3,3-1.9,4.6c-0.6,1.6-1.4,3.5-2.3,5.7c2.8-2.1,5.4-3.8,7.9-5.2c2.5-1.3,5.6-2.1,9.3-2.3c0.9-0.1,2,0.1,3.4,0.7
		c1.4,0.5,2.8,1.3,4,2.2c1.2,0.9,2.3,2.1,3.1,3.4c0.8,1.3,1.1,2.6,0.9,4c-0.4,2.1-1.2,4.3-2.4,6.6c-1.2,2.3-2.7,4.5-4.4,6.6
		c-1.7,2.1-3.7,4-5.8,5.7c-2.2,1.7-4.3,3.1-6.4,4.2c-0.1,1.7,0.5,3.3,1.6,4.8c1.1,1.5,2,2.8,2.6,3.7c2.4-0.7,5-2,7.8-4.1
		c2.8-2.1,5.6-4.3,8.3-6.6c2.7-2.3,5.2-4.5,7.4-6.6C247.5,200.8,249.3,199.3,250.5,198.6z"/>
	<path class="st2" d="M355.2,116.4c1.4-0.3,2.8-0.3,4.3,0.1c1.5,0.4,2.8,1.1,4,2c1.2,0.9,2.2,1.9,2.9,3.1c0.8,1.2,1.1,2.4,1.1,3.6
		c0.1,1.9-0.5,4.4-1.6,7.6c-1.1,3.2-2.5,6.5-4.1,9.9c-1.6,3.4-3.1,6.7-4.7,9.8c-1.6,3.1-2.8,5.4-3.5,7c-1.4,3.1-2.8,6.2-4.2,9.2
		c-1.4,3-2.9,6.1-4.4,9.1l7.5-3.1c2.3-1,5.1-2.2,8.3-3.5c3.2-1.4,6.5-2.6,9.9-3.5c3.4-1,6.8-1.5,10.2-1.7c3.4-0.2,6.5,0.3,9.4,1.5
		c4.1-10.5,8.1-20.8,12.1-30.8c3.9-10,7.5-19.4,10.8-28.2c0.3-0.6,0.6-0.7,1-0.5c0.4,0.2,0.9,0.7,1.4,1.4c0.6,0.7,1.1,1.5,1.8,2.4
		c0.6,0.9,1.3,1.8,1.9,2.6c1.4,1.6,1.7,3.5,1,5.7c-3.1,8.4-6.4,17.2-10,26.3c-3.6,9.1-7.2,18.3-10.9,27.6
		c-3.7,9.2-7.3,18.4-10.8,27.5c-3.5,9.1-6.8,17.9-9.9,26.5c-1.2,3.3-2.3,5.4-3.1,6.4c-0.8,1-1.5,1.3-2,1.2c-0.6-0.3-1.2-0.9-1.9-2
		c-0.7-1-1.7-1.6-2.9-1.6c-0.8,0.1-1.3-0.2-1.7-0.8c-0.4-0.6-0.4-1.2-0.2-1.8c3-8.4,6.3-17.4,9.9-26.9c3.6-9.5,7.3-19.2,11.2-29.1
		c-0.5-0.2-0.8-0.3-1-0.2c-2.2,0.1-4.6,0.5-7.3,1.3c-2.7,0.8-4.8,1.4-6.3,1.9c-4.6,1.6-9.1,3.4-13.5,5.3c-4.4,1.9-8.8,3.8-13.3,5.7
		l-8.2,3.9l-4.2,8c-1.4,2.8-3.2,6-5.2,9.6c-2.1,3.6-4.3,7.3-6.5,11.1c-2.2,3.8-4.4,7.6-6.6,11.2c-2.2,3.6-4,6.8-5.5,9.6
		c-0.6,1-1.1,1.7-1.5,2.1s-0.9,0.5-1.2,0.4c-0.3-0.1-0.6-0.4-0.7-0.8c-0.1-0.4-0.2-0.9-0.1-1.3c0.2-1.7-0.1-3-0.8-3.9
		s-1.4-1.8-2.1-2.6c-1-1.6-1.2-3.1-0.6-4.6c2-4.1,4.7-8.9,7.9-14.2c3.2-5.3,6.4-10.6,9.6-15.8c-3.1,1.5-6.2,3-9.3,4.6
		c-3.2,1.6-6.4,3.1-9.8,4.6c-1.9,0.9-3.8,0.9-5.6,0c-0.8-0.5-1.8-0.9-2.8-1.1c-1.1-0.3-2.4-0.5-3.9-0.6c-2.4-0.2-3.5-0.5-3.1-1
		c0.4-0.4,1.2-1,2.5-1.6c6.6-3,13.2-6.2,20-9.6c6.8-3.4,13.6-6.6,20.5-9.8l1.7-3.3c1.4-2.9,3.1-6.3,5-10.2c2-3.9,4-8,6-12.3
		c2-4.3,4.1-8.5,6.1-12.7c2-4.2,3.9-8,5.5-11.3c1.6-3.3,2.9-6.1,4-8.3c1-2.2,1.6-3.4,1.8-3.6c0.8-1.6-1.6-0.9-7.3,2.2
		c-5.7,3.1-14.2,8.8-25.4,17.1c-3.6,2.6-7.2,5.6-10.9,9c-3.7,3.4-6.9,6.7-9.8,10c-0.5,0.6-1.2,1.6-2.1,3c-0.9,1.4-1.9,2.8-3,4.2
		c-0.9,1.2-1.3,2.2-1.2,3c0.1,0.8,0.4,1.5,0.9,2.1c0.6,0.6,1.2,1.1,2,1.5c0.8,0.4,1.5,0.7,2.1,1c0.5,0.2,0.5,0.4,0.2,0.6
		c-0.3,0.2-0.8,0.5-1.3,0.7c-0.6,0.2-1.2,0.4-1.9,0.7c-0.7,0.2-1.3,0.4-1.7,0.4c-1,0.2-2.2,0.1-3.7-0.2c-1.5-0.4-2.9-1-4.2-2
		c-1.3-1-2.2-2.2-2.8-3.8c-0.6-1.5-0.4-3.5,0.5-5.7c0.7-1.9,1.7-3.8,3-5.6c1.3-1.8,2.3-3.3,3.2-4.3c2-2.5,5-5.7,9-9.7
		c4-4,8.8-8.1,14.2-12.2c5.4-4.2,11.2-8,17.5-11.5C342.5,120.3,348.8,117.8,355.2,116.4z"/>
	<path class="st2" d="M436.7,159.9c0.9-0.3,1.9-0.2,3.1,0.3c1.2,0.5,2.3,1.1,3.2,1.9c1.2,0.4,2.5,1.1,3.7,2.1
		c1.2,0.9,1.9,1.7,2.2,2.4c1,2.1,1.6,4.2,2,6.3c1.1,0.4,2.5,0.7,4,0.9c1.5,0.1,2.9,0.3,4.1,0.5c1.3,0.2,2.4,0.6,3.3,1.2
		c0.9,0.6,2.2,0.8,3.9,0.6c1.1-0.1,1.7,0.1,1.8,0.5c0.1,0.4-0.2,0.8-0.8,1.1c-2.5,1.1-5.2,2-7.8,2.7c-2.7,0.7-5.4,0.9-8.2,0.6
		c-0.4,3.7-1.4,7.2-3,10.7c-1.6,3.4-3.3,6.6-5.3,9.4c-1.2,1.6-2.5,3.4-4,5.2c-1.5,1.8-3.1,3.4-4.9,4.7c-1.8,1.3-3.6,2.3-5.7,2.9
		c-2,0.6-4.2,0.5-6.5-0.2c-2.6-0.9-4.6-2.1-6-3.8c-1.4-1.7-2.4-3.6-3-5.8c-0.6-2.2-0.8-4.5-0.7-6.9c0.1-2.4,0.4-4.7,0.9-6.9
		c0.8-3.3,1.9-6.4,3.3-9.5c1.4-3.1,3.1-6,5.1-8.6c2-2.7,4.3-5,6.9-7.1C430.8,162.8,433.6,161.1,436.7,159.9z M443.3,178.3
		c-3.6-2.2-5.6-4.9-5.9-8.2c-3,2.1-5.6,4.8-7.9,7.9c-2.3,3.1-4,6.3-5.2,9.6c-0.8,1.9-1.6,4.1-2.2,6.5c-0.7,2.4-1,4.7-0.9,6.8
		c0.1,1.6,0.4,3,0.8,4c0.4,1,1,1.6,1.8,1.7c0.8,0.1,1.8-0.3,3-1.3c1.2-0.9,2.7-2.5,4.4-4.8c0.4-0.5,1.1-1.4,2.1-2.9
		c1-1.5,2.2-3.2,3.4-5.3c1.2-2.1,2.5-4.3,3.7-6.8C441.7,183,442.6,180.6,443.3,178.3z"/>
	<path class="st2" d="M462.9,191.3c-1.3,1.3-2.1,2.1-2.5,2.4c-0.4,0.3-0.5,0.2-0.5-0.2c0-0.4,0.2-1,0.5-1.7c0.3-0.7,0.6-1.4,0.7-2
		c0.7-2.3,1.1-4.4,1.2-6.3c0.2-1.9,0.6-3.4,1.4-4.3c0.6-0.8,1.5-2.1,2.8-4c1.3-1.8,2.8-3.8,4.6-5.9c1.8-2.1,3.8-4.3,6.1-6.5
		c2.3-2.2,4.7-4.1,7.2-5.6c0.9-0.6,2.1-0.8,3.4-0.6c1.3,0.3,2.5,0.7,3.6,1.4c1.1,0.7,1.9,1.5,2.5,2.4c0.6,0.9,0.8,1.7,0.4,2.4
		c-1,2.3-2.4,5-4.3,8.2c-1.9,3.2-3.7,6.6-5.5,10.2c-1.8,3.6-3.5,7.2-4.9,10.8c-1.4,3.7-2.3,7-2.7,10c2.5-1.7,5.1-3.9,7.8-6.8
		c2.7-2.9,5.3-6,7.9-9.4c2.6-3.4,5.1-6.8,7.6-10.3s4.8-6.7,6.8-9.6c0.7-1.1,1.6-1.5,2.8-1.2c1.2,0.2,2.3,0.8,3.3,1.6
		c1,0.8,1.8,1.9,2.3,3.2c0.6,1.3,0.6,2.4,0.1,3.5c-2.2,5.6-3.8,10.9-4.7,15.9c3.5-2.5,6.8-5.2,10-8.2c3.1-2.9,5.6-5.2,7.5-6.8
		c0.6-0.5,1.2-0.9,1.9-1.2c0.6-0.3,1.3-0.6,2.1-0.8c0.7-0.3,1.6-0.7,2.5-1.2c0.9-0.5,2.1-1.2,3.4-2.1c1.8-1.1,2.7-1.6,2.9-1.2
		c0.1,0.3-0.4,1.2-1.6,2.6c-2.2,2.6-4.5,5.4-7,8.4c-2.5,3-5,5.9-7.6,8.7c-2.6,2.8-5.2,5.5-7.8,8s-5.1,4.5-7.5,6
		c-0.7,0.5-1.6,0.7-2.6,0.5c-1-0.2-2-0.5-3-1.1c-1-0.5-1.8-1.2-2.5-1.9c-0.7-0.8-1-1.5-1.1-2.3c-0.2-1.5-0.3-3.3-0.1-5.3
		c-2.6,3.2-5.3,6.3-8.2,9.2c-2.9,3-6.1,5.7-9.7,8.4c-0.8,0.6-2.1,1-3.8,1c-1.7,0-3.4-0.1-5.2-0.5c-1.7-0.4-3.3-1-4.6-2
		c-1.3-0.9-2.1-2.1-2.4-3.5c-0.3-1.7-0.2-3.6,0.2-5.6c0.4-2,1-4.1,1.7-6.3c0.7-2.2,1.6-4.4,2.5-6.6c1-2.2,1.8-4.2,2.7-6.2
		c-1.9,2.2-3.7,4.3-5.5,6.4C466.4,187.6,464.6,189.5,462.9,191.3z"/>
	<path class="st2" d="M587.1,166.1c1.6-1.5,2.6-2.1,2.8-1.8c0.2,0.3-0.3,1.3-1.5,3c-2.3,3.4-4.8,6.8-7.3,10.2
		c-2.6,3.4-5.1,6.7-7.7,9.7c-2.6,3-5.2,5.8-7.9,8.2c-2.7,2.4-5.4,4.3-8.2,5.7c-0.9,2.7-2.2,4.8-4.1,6.3c-1.9,1.5-4,2.4-6.4,2.7
		c-2.3,0.3-4.8,0.1-7.4-0.7c-2.6-0.8-5-2-7.1-3.8c-0.6-0.5-1.2-1.2-1.8-2c-0.6-0.8-1.1-1.7-1.5-2.7c-0.4-1-0.5-1.9-0.5-2.8
		c0-0.9,0.5-1.7,1.3-2.4c0.4-0.5,1.1-0.8,2-0.9c0.9-0.1,1.9-0.2,2.9-0.3c1,0,2,0,3,0.1c0.9,0.1,1.7,0.2,2.2,0.2c1.5,0,3-0.1,4.4-0.2
		c1.4-0.1,2.7-0.4,4-0.7c0.2-1.7,0.2-3.3,0-5c-0.2-1.7-0.3-3.2-0.4-4.7c-0.2-3-0.5-5.9-0.9-8.9c-0.4-3-1-6-1.6-9
		c-3.4,4.5-7.3,8.9-11.4,13.2c-4.2,4.3-7.9,8.1-11.3,11.2c-1.4,1.3-2.1,1.6-2.1,0.8c0-0.8,0.4-1.9,1.2-3.2c0.7-1.1,1.2-2.2,1.7-3.4
		c0.4-1.2,0.8-2.4,1.1-3.5c0.3-1.1,0.5-2.1,0.8-3c0.2-0.9,0.6-1.6,1.1-2.1c1.3-1.5,3.4-4.4,6.4-8.7c3-4.2,6.1-9.8,9.3-16.8
		c0.4-0.8,1-1.2,2-1.2c1,0,2,0.3,3,0.8c1,0.5,2,1.1,2.9,1.9c0.9,0.7,1.4,1.4,1.6,1.9c1.5,5.7,2.9,11.6,4.3,17.8s2.1,12.2,2.1,18.3
		c2-1.2,4-2.8,6.1-4.8c2.1-2,4.1-4,6.1-6.1c2-2,3.9-4,5.7-5.8c1.8-1.8,3.5-3.2,5.1-4.1c1.2-0.7,2.2-1.2,3.2-1.6
		S586.1,167.1,587.1,166.1z"/>
	<path class="st2" d="M607.9,162.8c-1,1.9-2.4,3.8-3.9,5.8c-1.6,2-3.3,3.9-5,5.7c-1.8,1.8-3.6,3.4-5.4,4.9c-1.9,1.4-3.6,2.4-5.2,3
		c0.1,1.2,0.3,2.4,0.6,3.6c0.3,1.2,0.7,2.1,1.3,2.9c1,1.3,2.2,1.9,3.6,1.7c1.4-0.2,2.8-0.8,4.3-1.7c2.5-1.5,5-3.4,7.5-5.5
		c2.5-2.1,5-4.5,7.4-7c2.4-2.5,4.7-5.1,7-7.8s4.3-5.2,6.2-7.6c0.8-1,1.4-1.3,1.8-1.1c0.4,0.2,0.4,0.8,0.1,1.6
		c-1,2.8-1.6,5.3-2.1,7.3c-0.4,2-0.8,3.7-1.1,5.1c-0.1,0.9-0.7,2.2-1.6,3.9c-0.9,1.7-2.1,3.5-3.5,5.5c-1.4,2-3.1,4-5,6.1
		c-1.9,2-4,3.8-6.4,5.3c-2.3,1.5-4.9,2.5-7.6,3.1c-2.8,0.6-5.6,0.4-8.5-0.4c-4.3-1.2-7.4-3.2-9.4-6.1c-2-2.9-3.2-6.2-3.6-9.7
		c-0.4-3.6-0.2-7.3,0.6-11.2c0.9-3.9,2-7.4,3.5-10.6c0.6-1.5,1.5-3.2,2.7-5c1.2-1.9,2.4-3.7,3.9-5.5c1.4-1.8,2.9-3.3,4.4-4.6
		c1.5-1.3,3-2.1,4.5-2.5c1.6-0.3,3.6,0,5.9,0.9c2.3,0.8,4.1,1.8,5.4,2.7c1.2,1.1,1.9,2.4,2.2,3.9c0.2,1.5,0.1,3.1-0.3,4.6
		c-0.5,1.6-1.1,3.2-1.9,4.7C609.3,160.1,608.6,161.5,607.9,162.8z M590.4,170.1c2.3-2.6,4.5-5.6,6.5-9c2.1-3.4,3.6-6.8,4.6-10.3
		c-0.9,0.7-1.8,1.8-2.8,3.1c-0.9,1.3-1.8,2.6-2.5,4c-0.8,1.4-1.5,2.7-2.1,4.1c-0.7,1.3-1.2,2.4-1.5,3.2L590.4,170.1z"/>
	<path class="st2" d="M788.9,96.8c1.3,1.2,1.8,2.2,1.3,3c-0.4,0.8-1.4,0.8-3,0.1c-1.5-0.6-3.1-0.9-4.9-0.9c-1.8,0.1-3.2-0.3-4.1-1.1
		c-3.3-2.8-7.2-4.8-11.6-6.1c-4.4-1.3-8.9-1.8-13.5-1.8c-4.6,0.1-9.2,0.7-13.6,1.9c-4.5,1.2-8.4,2.7-11.9,4.7
		c-3.8,2.1-7.9,5.1-12.3,9.1c-4.4,4-8.8,8.5-13.1,13.6c-4.3,5.1-8.4,10.7-12.4,16.7c-3.9,6-7.3,12.2-10.3,18.5
		c-3,6.3-5.2,12.6-6.8,18.8c-1.6,6.2-2.2,12.2-1.8,17.9c0.2,1.7,0.7,3.1,1.5,4c0.8,0.9,1.9,1.6,3.2,1.9c1.3,0.4,2.7,0.5,4.1,0.5
		c1.4-0.1,2.7-0.2,3.9-0.4c4.2-0.8,8.4-2.2,12.6-4.1c4.2-1.9,8.2-4.1,12.2-6.6c4-2.5,7.7-5.1,11.3-7.9c3.5-2.7,6.8-5.4,9.7-7.9
		c2.9-2.5,5.5-4.8,7.6-6.7c2.2-2,3.8-3.4,5-4.2c2.5-2,4.3-3.1,5.5-3.5c1.7-0.4,3.2-1,4.4-2c1.2-0.9,2.9-2.3,5.2-4
		c1.2-0.9,2-1.2,2.2-0.9c0.2,0.3-0.1,1-1,2.1c-4.1,5.3-8.5,10.4-13.1,15.3c-4.6,4.9-9.4,9.6-14.2,14.2c-2.6,2.5-5.7,5.2-9.3,8.1
		c-3.6,2.9-7.4,5.5-11.5,8c-4.1,2.5-8.2,4.7-12.4,6.6c-4.2,1.9-8.2,3-12,3.3c-4.4,0.4-8.1,0-11.3-1c-3.2-1.1-5.8-2.7-8-5
		c-2.1-2.2-3.8-4.8-4.9-7.7c-1.1-2.9-1.9-6-2.2-9.3c-0.4-5.9,0.2-12.2,2-18.9c1.8-6.7,4.3-13.4,7.6-20.2c3.3-6.7,7.2-13.3,11.7-19.6
		c4.5-6.3,9.2-12.1,14.3-17.4c5-5.2,10.2-9.7,15.4-13.4c5.2-3.7,10.2-6.3,15.1-7.9c5-1.6,10.3-2.7,16-3.3c5.6-0.7,11.2-0.6,16.8,0.1
		c5.6,0.7,11,2.1,16.3,4.2C779.7,89.9,784.5,92.9,788.9,96.8z"/>
	<path class="st2" d="M768.8,130c0.9-0.3,1.9-0.2,3.1,0.3c1.2,0.5,2.3,1.1,3.2,1.9c1.2,0.4,2.5,1.1,3.7,2.1c1.2,0.9,1.9,1.7,2.2,2.4
		c1,2.1,1.6,4.2,2,6.3c1.1,0.4,2.5,0.7,4,0.9c1.5,0.1,2.9,0.3,4.1,0.5c1.3,0.2,2.4,0.6,3.3,1.2c0.9,0.6,2.2,0.8,3.9,0.6
		c1.1-0.1,1.7,0.1,1.8,0.5c0.1,0.4-0.2,0.8-0.8,1.1c-2.5,1.1-5.2,2-7.8,2.7c-2.7,0.7-5.4,0.9-8.2,0.6c-0.4,3.7-1.4,7.2-3,10.7
		c-1.6,3.4-3.3,6.6-5.3,9.4c-1.2,1.6-2.5,3.4-4,5.2c-1.5,1.8-3.1,3.4-4.9,4.7c-1.8,1.3-3.6,2.3-5.7,2.9c-2,0.6-4.2,0.5-6.5-0.2
		c-2.6-0.9-4.6-2.1-6-3.8c-1.4-1.7-2.4-3.6-3-5.8c-0.6-2.2-0.8-4.5-0.7-6.9c0.1-2.4,0.4-4.7,0.9-6.9c0.8-3.3,1.9-6.4,3.3-9.5
		c1.4-3.1,3.1-6,5.1-8.6c2-2.7,4.3-5,6.9-7.1C762.9,132.9,765.7,131.2,768.8,130z M775.4,148.4c-3.6-2.2-5.6-4.9-5.9-8.2
		c-3,2.1-5.6,4.8-7.9,7.9c-2.3,3.1-4,6.3-5.2,9.6c-0.8,1.9-1.6,4.1-2.2,6.5c-0.7,2.4-1,4.7-0.9,6.8c0.1,1.6,0.4,3,0.8,4
		c0.4,1,1,1.6,1.8,1.7c0.8,0.1,1.8-0.3,3-1.3c1.2-0.9,2.7-2.5,4.4-4.8c0.4-0.5,1.1-1.4,2.1-2.9c1-1.5,2.2-3.2,3.4-5.3
		c1.2-2.1,2.5-4.3,3.7-6.8C773.8,153.1,774.8,150.7,775.4,148.4z"/>
	<path class="st2" d="M810.6,163.5c1.5,0.7,2.8,1.6,3.8,2.7c1,1.1,1.5,1.9,1.5,2.6c-0.2,1.7-0.5,3.2-1,4.5c-0.5,1.4-1.2,2.4-2.1,3.2
		c-0.9,0.8-2.1,1.3-3.4,1.4c-1.4,0.1-3-0.3-4.8-1.2c-0.6-0.3-1.2-0.6-1.9-1c-0.7-0.4-1.1-0.9-1.1-1.5c-0.2-2.1,0-3.9,0.7-5.3
		c0.6-1.5,1.5-2.7,2.5-3.6c1-0.9,2.1-1.5,3.2-1.9C809,163.1,809.9,163.1,810.6,163.5z"/>
</g>
</svg>
