<?xml version="1.0" encoding="utf-8"?>
<!-- Generator: Adobe Illustrator 24.0.1, SVG Export Plug-In . SVG Version: 6.00 Build 0)  -->
<svg version="1.1" id="Layer_1" xmlns="http://www.w3.org/2000/svg" xmlns:xlink="http://www.w3.org/1999/xlink" x="0px" y="0px"
	 viewBox="0 0 806.4 272" style="enable-background:new 0 0 806.4 272;" xml:space="preserve">
<style type="text/css">
	.st0{fill:#999999;}
	.st1{fill:#FFC803;}
</style>
<title>footer-logo</title>
<path class="st0" d="M77.8,136.1c-0.7-53.5,32-101.8,81.9-121.1c16.8-6.7,35.3-10,55.6-10.1c20,0,38.5,3.4,55.4,10.1
	c16.3,6.3,31.1,15.8,43.7,27.9c12.2,11.9,21.9,26,28.5,41.7c6.9,16.3,10.4,33.9,10.2,51.6c0.1,17.7-3.3,35.3-10.2,51.6
	c-6.6,15.7-16.3,29.9-28.5,41.7c-12.6,12.1-27.4,21.5-43.7,27.8c-16.9,6.7-35.4,10.1-55.4,10.1c-20.2,0-38.7-3.4-55.6-10.1
	C109.9,237.9,77.3,189.6,77.8,136.1L77.8,136.1z M145.4,136.1c-0.1,9.4,1.8,18.7,5.6,27.4c7.2,16.5,20.7,29.5,37.4,36.1
	c17.3,6.8,36.5,6.8,53.7,0c8.3-3.3,15.9-8.2,22.4-14.3c6.5-6.2,11.7-13.6,15.3-21.8c7.5-17.5,7.5-37.3,0-54.7
	c-3.6-8.2-8.8-15.6-15.3-21.8c-6.5-6.2-14.1-11-22.4-14.4c-17.3-6.8-36.5-6.8-53.8,0c-16.7,6.7-30.2,19.6-37.4,36.1
	C147.2,117.4,145.3,126.7,145.4,136.1z"/>
<path class="st0" d="M425.6,107.8H519v-96h64.6v248.7H519V157.9h-93.4v102.6H361V11.8h64.6L425.6,107.8z"/>
<path class="st0" d="M591.4,228.8c0-5.2,1-10.3,3-15c6-14.3,20.1-23.7,35.6-23.6c10.3,0,20.1,4,27.4,11.2c3.5,3.5,6.3,7.7,8.2,12.4
	c4,9.6,4,20.4,0,30c-3.8,9.3-11.3,16.8-20.6,20.6c-9.6,4-20.4,4-30,0c-9.3-3.8-16.8-11.3-20.6-20.6
	C592.4,239,591.4,233.9,591.4,228.8z M599,176V11.8h62V176H599z"/>
<path class="st1" d="M70.6,148.1c1.2,0.7,2.6,1.1,4,1.3c1.3,0.1,2.6,0.1,3.9,0.1c1.5,0,2.3,0.2,2.4,0.6s-0.6,0.9-1.9,1.3
	c-6.2,2.1-12.1,4.9-17.7,8.3c-5.6,3.4-10.9,7.4-15.7,11.9c-4.8,4.5-9.3,9.3-13.3,14.6c-4,5.1-7.5,10.5-10.7,16.1
	c-3.2,5.7-5.9,11.7-7.9,17.9c-2,6.2-3.1,12.7-3.2,19.3c0,2.2,0.1,4.4,0.3,6.5c0.2,2.2,0.7,4.3,1.5,6.3c0.7,1.9,1.9,3.5,3.5,4.7
	c1.9,1.3,4.2,1.9,6.5,1.8c3.8,0,7.6-0.7,11.2-2.1c3.5-1.3,6.9-3.1,10-5.3c4.1-2.8,8-6,11.4-9.6c3.5-3.6,6.7-7.5,9.6-11.7
	c2.9-4.2,5.5-8.5,7.8-13c2.3-4.5,4.4-9.1,6.3-13.7c-1.4-2.1-2.5-4.4-3.2-6.8c-0.7-2.6-1.1-5.4-1-8.1c0.1-6.6,1.3-13.2,3.5-19.5
	c2.1-6.2,4.7-12.3,7.9-18.1c0.4-0.8,1.3-1.3,2.2-1.2c1,0,2.1,0.3,3,0.7c1,0.4,2,1.1,2.8,1.8c0.7,0.5,1.2,1.3,1.5,2.1
	c1.3,3.9,2.1,7.9,2.2,12c0.1,4.3-0.2,8.5-0.8,12.7c-0.6,4.2-1.5,8.4-2.7,12.6c-1.1,4.1-2.4,8-3.7,11.6l-0.5,1.4c3,1.6,7,2.6,12,3
	c5.1,0.4,10.1,0.3,15.2-0.2c1.5-0.2,2.9-0.3,4.4-0.2c0.6,0.1,0.6,0.2,0.3,0.4c-0.6,0.3-1.3,0.6-2,0.8c-0.9,0.4-1.7,0.6-2.2,0.8
	c-1,0.4-1.9,0.9-2.8,1.4c-1.3,0.8-2.4,1.8-3.4,2.9c-0.9,1-2.1,1.7-3.4,2c-3.6,0.4-7.3,0.3-10.8-0.4c-3.5-0.7-6.9-1.9-10-3.8
	c-3.6,8.4-8.1,16.3-13.2,23.8c-5.1,7.5-11.3,14.1-18.3,19.8c-3.7,2.9-7.8,5.3-12.2,7.1c-4.7,1.9-9.6,3.1-14.6,3.5
	c-4.8,0.4-9.6-0.4-14.1-2.1c-4.6-1.9-8.3-5.3-10.6-9.7c-2.8-5-4.2-10.7-4.1-16.4c0-6.1,0.9-12.2,2.6-18c1.7-6,4.1-11.8,6.9-17.3
	c2.6-5,5.5-9.9,8.7-14.6c5.9-8.4,12.7-16.2,20.2-23.2c7.4-6.9,16-12.4,25.3-16.4C65.9,146.8,68.5,146.9,70.6,148.1z M86.5,179
	c-0.3,0.8-0.5,1.7-0.6,2.5L86.5,179z"/>
<path class="st1" d="M117.7,204.1c2.5-3,5.2-5.8,8.2-8.4c1.9-1.8,4.2-3.2,6.7-4.1c1.9-0.7,4-0.7,6-0.1c2.3,0.9,4.3,2.1,6.1,3.8
	l2.1-4c0.6-0.9,1.6-1.3,2.6-1.1c1.3,0.1,2.6,0.5,3.7,1.1c1.1,0.6,2.1,1.4,2.9,2.4c0.7,0.8,0.7,1.9,0.2,2.7c-0.9,1.6-1.8,3.3-2.5,5
	c-1.2,2.6-2.4,5.6-3.7,9c-1.3,3.4-2.4,6.7-3.4,9.9c-0.9,2.6-1.5,5.2-1.7,7.9c-0.1,0.3-0.1,0.6-0.1,0.8l0.1,1c2.1-1.4,4.1-3,6-4.7
	c2.2-2,4.4-3.9,6.5-6c2.1-2,4.1-3.9,6-5.7l4.3-4.2c0.7-0.6,1.4-1.2,2.2-1.6c0.6-0.3,1.3-0.6,1.9-0.9l2.1-0.9c0.9-0.4,1.7-1,2.5-1.6
	c0.6-0.5,1.1-0.7,1.4-0.5s0.2,0.6-0.3,1.4c-3.7,6-7.7,12-12,17.7c-1.2,1.5-2.5,3.3-3.9,5.3c-1.4,2-3.1,3.8-4.8,5.5
	c-1.7,1.6-3.6,3-5.6,4c-2,1-4.2,1.3-6.3,0.8c-4-0.6-6.7-1.9-8.1-3.7c-1.4-2-1.9-4.5-1.5-6.9c-1.9,3.3-3.8,6.4-5.7,9.2
	c-1.6,2.4-3.5,4.5-5.8,6.3c-7,5.1-12.7,4.1-17.1-3.2c-1-1.8-1.6-3.8-1.9-5.8c-0.3-2.8-0.1-5.6,0.6-8.4c0.9-3.6,2.3-7.1,4.1-10.3
	C111.6,211.8,114.4,207.8,117.7,204.1z M122.5,230.6c3.9-5,7.5-10.2,10.8-15.6c3.4-5.5,6.6-11,9.6-16.5c-1.9,0.1-3.6,0.7-5.1,1.9
	c-2,1.4-4,2.9-5.8,4.6c-1.9,1.8-3.6,3.5-5.1,5.2c-1.1,1.1-2.1,2.3-3,3.6c-1.2,1.6-2.5,3.7-4,6.2s-2.8,5-4.1,7.7
	c-1.1,2.4-2.1,4.8-2.9,7.3c-0.7,2.3-0.7,3.9-0.2,5c0.7,0.9,1.8,0.6,3.1-1C117.2,237.3,119.4,234.5,122.5,230.6z"/>
<path class="st1" d="M243.4,203.1c0.5-0.4,1.1-0.7,1.7-0.9c0.5-0.2,1.1-0.4,1.7-0.6c0.7-0.3,1.4-0.6,2-0.9c1-0.5,2-1.1,2.9-1.8
	c1.3-1,2.1-1.4,2.4-1.1s-0.1,1-1.1,2.3c-1.9,2.9-4.3,6.1-7,9.5c-2.7,3.4-5.6,6.7-8.6,9.8c-2.8,2.9-5.8,5.6-9,8.1
	c-2.3,2-5.1,3.4-8,4.3c-3.4,0.9-7,0.8-10.4-0.3c-3.4-1-5.8-2.6-7.2-4.7c-1.3-1.9-2.1-4.1-2.4-6.4c-0.5-2.5-0.7-5.1-0.7-7.7
	c-0.1-2,1-3.6,3.3-4.9c1.2-0.8,2.7-1.8,4.4-3c1.7-1.3,3.4-2.7,4.9-4.2c1.5-1.6,3-3.3,4.2-5.1c1.2-1.7,2-3.6,2.5-5.6
	c-3.4,1.3-6.4,3.3-9,5.9c-2.7,2.5-5.3,5.3-7.6,8.2c-2.3,2.8-4.5,6-6.8,9.4c-2.3,3.4-4.3,6.7-6.2,9.9c-1.9,3.1-3.5,5.9-4.8,8.3
	l-2.5,4.6c-0.6,1.3-1.7,2.3-3.1,2.7c-1.4,0.4-2.9,0.4-4.3,0.1c-1.3-0.2-2.5-0.7-3.5-1.5c-0.9-0.5-1.2-1.5-0.9-2.4l12.8-29.1
	c-2.7,3.1-5.5,6.1-8.6,8.9c-3,2.8-6.3,5.4-9.6,7.8c-1.2,1-2.5,1.9-3.7,2.7c-1.2,0.8-2.2,1.4-2.9,1.8s-1,0.5-1.1,0.2s0.5-1.1,1.6-2.4
	c2-2.3,3.7-4.7,5.3-7.3c1-1.7,1.8-3.5,2.4-5.4c0.2-1.4,1.4-3.3,3.5-5.7s4.7-5.2,7.7-8.5s6.2-7.2,9.5-11.5c3.6-4.6,6.7-9.5,9.4-14.6
	c1.7-4.5,3.2-9.1,4.7-13.7s2.9-9.2,4.2-14c0.3-0.8,1.1-1.2,1.9-1c1.2,0.2,2.3,0.7,3.2,1.4c1.2,0.9,2.2,1.9,3.1,3.1
	c0.9,1.1,1.4,2.5,1.4,4c0.1,1.8-0.1,3.6-0.6,5.3c-0.4,1.8-1,3.5-1.7,5.2c-0.6,1.5-1.3,2.9-2.1,4.3c-0.8,1.2-1.4,2.2-1.9,2.9
	c-0.8,2.3-1.4,4.2-2,5.9s-1.1,3.2-1.8,4.7s-1.3,3-1.9,4.6s-1.4,3.5-2.3,5.6c2.5-1.9,5.1-3.7,7.8-5.2c2.9-1.4,6-2.2,9.2-2.3
	c1.2,0,2.3,0.2,3.4,0.7c1.4,0.5,2.8,1.3,4,2.2c1.2,0.9,2.3,2,3.1,3.3c0.8,1.1,1.1,2.6,0.9,3.9c-0.4,2.3-1.2,4.6-2.4,6.6
	c-1.2,2.3-2.7,4.5-4.4,6.6c-1.7,2.1-3.7,4-5.8,5.7c-2,1.6-4.1,3-6.4,4.2c0,1.7,0.5,3.4,1.6,4.8c1.1,1.5,2,2.8,2.6,3.7
	c2.8-0.9,5.4-2.3,7.8-4.1c2.8-2.1,5.6-4.3,8.3-6.6s5.1-4.5,7.4-6.6C239.8,205.9,241.5,204.4,243.4,203.1z"/>
<path class="st1" d="M347.4,121c1.4-0.3,2.9-0.3,4.3,0.1c1.4,0.4,2.8,1.1,4,1.9c1.2,0.8,2.1,1.9,2.9,3.1c0.7,1.1,1.1,2.3,1.1,3.6
	c-0.1,2.6-0.6,5.1-1.6,7.6c-1.1,3.2-2.5,6.5-4,9.9c-1.5,3.4-3.1,6.7-4.7,9.7c-1.6,3-2.7,5.4-3.5,7c-1.3,3.1-2.7,6.1-4.2,9.2
	c-1.4,3-2.9,6.1-4.4,9l7.4-3.1c2.3-1,5.1-2.2,8.2-3.6c3.2-1.4,6.5-2.6,9.9-3.5c3.3-1,6.7-1.6,10.2-1.8c3.2-0.2,6.4,0.3,9.3,1.4
	c4.1-10.5,8.1-20.7,12-30.7c3.9-10,7.5-19.4,10.7-28.1c0.3-0.6,0.6-0.7,1-0.5c0.6,0.4,1,0.8,1.4,1.3c0.6,0.8,1.2,1.6,1.8,2.4
	c0.6,0.9,1.3,1.8,1.9,2.6c1.3,1.6,1.7,3.7,1,5.7c-3.1,8.4-6.4,17.1-9.9,26.2s-7.2,18.3-10.8,27.5c-3.6,9.2-7.2,18.4-10.7,27.5
	s-6.7,17.9-9.8,26.4c-0.7,2.2-1.7,4.4-3,6.4c-0.8,1-1.5,1.3-2,1.2c-0.8-0.5-1.4-1.2-1.9-2c-0.6-1-1.7-1.6-2.9-1.5
	c-0.7,0.1-1.4-0.2-1.7-0.8c-0.4-0.5-0.4-1.2-0.2-1.8c3-8.4,6.2-17.3,9.8-26.8c3.6-9.5,7.2-19.2,11-29.1c-0.3-0.1-0.7-0.2-1-0.2
	c-2.5,0.2-4.9,0.6-7.3,1.4c-2.7,0.8-4.7,1.4-6.2,1.9c-4.6,1.6-9,3.4-13.4,5.3c-4.4,1.9-8.8,3.8-13.2,5.8l-8.2,3.9l-4.2,8
	c-1.4,2.8-3.1,5.9-5.2,9.5l-6.5,11.1c-2.2,3.8-4.4,7.5-6.5,11.1c-2.1,3.6-4,6.8-5.5,9.5c-0.4,0.8-0.9,1.5-1.5,2.1
	c-0.3,0.3-0.8,0.5-1.2,0.4c-0.4-0.2-0.6-0.5-0.7-0.8c-0.1-0.4-0.2-0.9-0.1-1.3c0.3-1.4-0.1-2.7-0.9-3.9c-0.7-0.9-1.4-1.8-2-2.6
	c-1-1.3-1.2-3-0.6-4.5c2-4.1,4.6-8.8,7.8-14.1c3.2-5.3,6.4-10.5,9.5-15.8l-9.3,4.6c-3.1,1.5-6.4,3.1-9.8,4.6c-1.7,0.9-3.8,0.9-5.6,0
	c-0.9-0.5-1.8-0.9-2.8-1.1c-1.3-0.3-2.6-0.5-3.9-0.5c-2.4-0.2-3.5-0.5-3-1c0.7-0.7,1.6-1.2,2.5-1.6c6.5-3,13.1-6.2,19.9-9.6
	s13.6-6.6,20.4-9.8l1.7-3.3c1.4-2.9,3-6.3,5-10.2c2-3.9,3.9-8,5.9-12.2c2-4.2,4-8.5,6.1-12.6c2-4.2,3.9-7.9,5.5-11.3
	c1.6-3.3,2.9-6.1,3.9-8.3c0.5-1.2,1.1-2.5,1.8-3.6c0.8-1.6-1.6-0.9-7.3,2.2c-5.7,3.1-14.1,8.8-25.3,17.1c-3.8,2.8-7.4,5.8-10.9,9
	c-3.4,3.1-6.7,6.5-9.8,10c-0.5,0.6-1.2,1.6-2.1,3s-1.9,2.8-3,4.2c-0.7,0.8-1.2,1.9-1.2,3c0.1,0.8,0.4,1.5,0.9,2.1
	c0.6,0.6,1.2,1.1,2,1.5c0.8,0.4,1.5,0.7,2.1,1s0.5,0.4,0.2,0.6c-0.4,0.3-0.9,0.5-1.3,0.7c-0.6,0.2-1.2,0.4-1.9,0.7
	c-0.5,0.2-1.1,0.3-1.7,0.4c-1.2,0.2-2.5,0.1-3.7-0.2c-1.5-0.4-3-1-4.2-2c-1.3-1-2.3-2.3-2.8-3.8c-0.6-1.9-0.4-3.9,0.5-5.7
	c0.7-2,1.7-3.9,2.9-5.6c1.3-1.8,2.3-3.3,3.2-4.3c2.8-3.4,5.8-6.6,9-9.7c4.4-4.4,9.1-8.4,14.1-12.2c5.5-4.2,11.3-8.1,17.4-11.5
	C334.5,125.1,340.9,122.6,347.4,121z"/>
<path class="st1" d="M428.7,164.1c1-0.3,2.1-0.2,3.1,0.3c1.2,0.5,2.3,1.1,3.2,1.9c1.3,0.5,2.5,1.1,3.6,2c0.9,0.6,1.6,1.4,2.2,2.4
	c0.9,2,1.6,4.1,2.1,6.2c1.3,0.5,2.6,0.8,3.9,0.9c1.5,0.1,2.9,0.3,4.1,0.5c1.2,0.1,2.3,0.5,3.3,1.2c1.2,0.6,2.6,0.8,3.9,0.6
	c1.1-0.1,1.7,0.1,1.8,0.5s-0.2,0.8-0.8,1.1c-2.5,1.1-5.1,2-7.8,2.7c-2.7,0.7-5.4,0.9-8.2,0.6c-0.4,3.7-1.5,7.3-3,10.6
	c-1.5,3.3-3.2,6.4-5.2,9.4c-1.2,1.6-2.5,3.4-4,5.2c-1.4,1.8-3,3.4-4.8,4.7c-1.7,1.3-3.6,2.3-5.6,2.9c-2.1,0.6-4.4,0.5-6.4-0.2
	c-2.3-0.7-4.4-2-6-3.8c-1.4-1.7-2.4-3.7-3-5.8c-0.6-2.2-0.8-4.5-0.7-6.8c0.1-2.3,0.4-4.6,0.8-6.9c0.8-3.3,1.9-6.4,3.2-9.5
	c1.3-3,3-5.9,5-8.6c2-2.6,4.3-5,6.8-7C422.8,167,425.6,165.4,428.7,164.1z M435.3,182.4c-3.6-2.2-5.5-4.9-5.9-8.2
	c-3,2.2-5.7,4.8-7.8,7.9c-2.1,3-3.9,6.2-5.2,9.6c-0.9,2.1-1.6,4.3-2.2,6.4c-0.6,2.2-0.9,4.5-0.9,6.8c0.1,1.3,0.4,2.7,0.8,4
	c0.2,0.9,0.9,1.5,1.8,1.6c1.1,0,2.2-0.5,3-1.3c1.6-1.4,3.1-3,4.4-4.8c0.4-0.5,1.1-1.4,2.1-2.9s2.1-3.2,3.4-5.3s2.4-4.3,3.6-6.8
	C433.7,187.3,434.6,184.9,435.3,182.4z"/>
<path class="st1" d="M454.9,195.4c-0.8,0.8-1.6,1.6-2.5,2.4c-0.4,0.2-0.5,0.2-0.5-0.2c0.1-0.6,0.2-1.2,0.5-1.7
	c0.3-0.7,0.5-1.3,0.7-2c0.6-2,1-4.1,1.2-6.3c0-1.5,0.5-3.1,1.4-4.3c0.6-0.8,1.5-2.1,2.8-4s2.8-3.8,4.5-5.9c1.9-2.3,3.9-4.4,6.1-6.5
	c2.2-2.1,4.6-4,7.1-5.6c1-0.6,2.2-0.8,3.4-0.6c1.3,0.2,2.5,0.7,3.6,1.4c1,0.6,1.9,1.4,2.5,2.4c0.6,0.7,0.7,1.6,0.4,2.4
	c-1.3,2.8-2.7,5.6-4.2,8.2c-1.8,3.2-3.7,6.6-5.5,10.1s-3.4,7.2-4.8,10.8c-1.3,3.2-2.2,6.6-2.7,10c2.8-2,5.4-4.3,7.8-6.8
	c2.8-3,5.4-6.1,7.8-9.4c2.5-3.3,5-6.7,7.5-10.2c2.5-3.5,4.7-6.7,6.8-9.6c0.5-1,1.7-1.5,2.8-1.2c1.2,0.2,2.3,0.8,3.3,1.6
	c1,0.9,1.8,1.9,2.3,3.1c0.5,1.1,0.6,2.3,0.2,3.4c-2.1,5.1-3.6,10.4-4.6,15.9c3.5-2.5,6.8-5.2,9.9-8.1c3.1-2.9,5.6-5.2,7.4-6.8
	c0.6-0.5,1.2-0.9,1.9-1.2c0.6-0.3,1.3-0.6,2.1-0.9c0.9-0.4,1.7-0.8,2.5-1.2c0.9-0.5,2.1-1.2,3.4-2.1c1.8-1.1,2.7-1.6,2.8-1.2
	s-0.4,1.2-1.6,2.6l-7,8.4c-2.5,3-5,5.9-7.6,8.7c-2.6,2.8-5.1,5.5-7.7,8c-2.3,2.2-4.7,4.2-7.4,6c-0.8,0.5-1.7,0.7-2.6,0.5
	c-1-0.2-2.1-0.5-3-1c-0.9-0.5-1.8-1.1-2.5-1.9c-0.6-0.6-1-1.4-1.1-2.3c-0.3-1.7-0.3-3.5-0.2-5.2c-2.6,3.2-5.3,6.3-8.1,9.2
	c-3,3.1-6.2,5.9-9.7,8.4c-1.1,0.7-2.4,1.1-3.8,1c-1.7,0-3.5-0.1-5.1-0.5c-1.7-0.4-3.2-1-4.6-2c-1.2-0.8-2.1-2-2.4-3.5
	c-0.3-1.9-0.2-3.8,0.2-5.6c0.4-2.1,1-4.2,1.7-6.3c0.7-2.2,1.6-4.4,2.5-6.6s1.8-4.2,2.6-6.2c-1.9,2.1-3.7,4.3-5.5,6.4
	C458.4,191.6,456.6,193.6,454.9,195.4z"/>
<path class="st1" d="M578.5,170c1.6-1.5,2.5-2.1,2.8-1.8s-0.3,1.2-1.5,3c-2.3,3.4-4.7,6.8-7.3,10.2c-2.5,3.4-5.1,6.6-7.7,9.7
	c-2.4,2.9-5.1,5.6-7.9,8.2c-2.4,2.3-5.1,4.2-8.1,5.7c-0.7,2.5-2.1,4.7-4.1,6.3c-1.8,1.5-4,2.4-6.3,2.7c-2.5,0.3-5,0.1-7.4-0.6
	c-2.6-0.8-5-2-7.1-3.8c-0.7-0.6-1.3-1.3-1.8-2c-0.6-0.8-1.1-1.7-1.5-2.7c-0.3-0.9-0.5-1.8-0.5-2.8c0.1-0.9,0.5-1.8,1.2-2.4
	c0.5-0.5,1.2-0.9,2-0.9c0.9-0.1,1.9-0.2,2.9-0.3c1,0,2,0,3,0.1c0.9,0.1,1.7,0.1,2.2,0.2c1.5,0,3-0.1,4.3-0.2c1.4-0.1,2.7-0.3,4-0.7
	c0.2-1.7,0.2-3.3,0-5c-0.2-1.7-0.3-3.2-0.4-4.6c-0.2-2.9-0.5-5.9-0.9-8.9c-0.4-3-1-6-1.6-9c-3.5,4.6-7.3,9-11.3,13.2
	c-4.2,4.3-7.9,8.1-11.2,11.2c-1.4,1.3-2.1,1.6-2.1,0.8c0.1-1.1,0.6-2.2,1.2-3.1c0.7-1.1,1.2-2.2,1.7-3.4c0.4-1.1,0.8-2.3,1.1-3.5
	c0.3-1.1,0.5-2.1,0.8-3c0.2-0.8,0.6-1.5,1.1-2.1c1.3-1.5,3.4-4.4,6.3-8.6c3.6-5.3,6.6-10.9,9.2-16.8c0.3-0.8,1.2-1.2,2-1.2
	c1,0,2.1,0.3,3,0.8c1,0.5,2,1.1,2.9,1.9c0.7,0.5,1.2,1.1,1.6,1.9c1.5,5.7,3,11.6,4.3,17.7c1.4,6,2.1,12.1,2.1,18.2
	c2.2-1.3,4.2-2.9,6.1-4.8c2.1-2,4.1-4,6-6.1c1.9-2,3.8-4,5.6-5.8c1.5-1.6,3.2-2.9,5-4.1c1-0.6,2.1-1.1,3.1-1.6
	C576.7,171.6,577.7,170.9,578.5,170z"/>
<path class="st1" d="M599.2,166.6c-1.2,2-2.5,4-3.9,5.8c-1.6,2-3.2,3.9-5,5.7c-1.7,1.7-3.5,3.4-5.4,4.9c-1.6,1.3-3.3,2.3-5.1,3
	c0.1,1.2,0.3,2.4,0.6,3.6c0.2,1,0.7,2,1.3,2.8c0.8,1.2,2.2,1.9,3.6,1.6c1.5-0.3,3-0.9,4.3-1.7c2.6-1.7,5.1-3.5,7.5-5.6
	c2.5-2.1,4.9-4.5,7.3-7c2.4-2.5,4.7-5.1,6.9-7.8s4.3-5.2,6.1-7.6c0.8-1,1.4-1.3,1.8-1.1s0.4,0.8,0.1,1.6c-0.8,2.4-1.5,4.8-2,7.2
	c-0.4,2-0.8,3.7-1.1,5c-0.3,1.4-0.8,2.6-1.5,3.8c-1,1.9-2.2,3.7-3.4,5.5c-1.5,2.1-3.2,4.1-5,6c-1.9,2-4,3.8-6.3,5.3
	c-2.3,1.5-4.9,2.5-7.6,3.1c-2.8,0.6-5.7,0.5-8.5-0.4c-4.3-1.1-7.4-3.1-9.4-6c-2-2.9-3.2-6.2-3.6-9.7c-0.4-3.7-0.2-7.5,0.6-11.2
	c0.8-3.6,1.9-7.2,3.5-10.6c0.8-1.7,1.7-3.4,2.7-5c1.2-1.9,2.5-3.7,3.9-5.4c1.3-1.7,2.8-3.2,4.3-4.6c1.3-1.2,2.8-2,4.5-2.5
	c2-0.2,4,0.1,5.8,0.9c1.9,0.6,3.7,1.6,5.3,2.7c1.2,1,1.9,2.4,2.2,3.9c0.2,1.5,0.1,3.1-0.3,4.6c-0.5,1.6-1.1,3.2-1.9,4.7L599.2,166.6
	z M581.8,173.9c2.4-2.8,4.6-5.8,6.5-9c2-3.2,3.5-6.7,4.6-10.3c-1.1,0.9-2,1.9-2.8,3.1c-0.9,1.3-1.8,2.6-2.5,4
	c-0.8,1.4-1.4,2.7-2.1,4s-1.2,2.4-1.5,3.2L581.8,173.9z"/>
<path class="st1" d="M779.4,100.4c1.3,1.2,1.8,2.2,1.3,3s-1.4,0.9-3,0.1c-1.6-0.6-3.2-0.9-4.9-0.9c-1.5,0.2-2.9-0.2-4.1-1.1
	c-3.4-2.8-7.3-4.8-11.6-6c-4.4-1.2-8.9-1.8-13.5-1.7c-4.6,0.1-9.1,0.7-13.5,1.9c-4.1,1.1-8.1,2.6-11.8,4.7
	c-4.4,2.6-8.5,5.6-12.3,9.1c-4.6,4.2-9,8.8-13,13.6c-4.4,5.3-8.5,10.9-12.3,16.7c-3.8,5.9-7.2,12.1-10.2,18.4
	c-2.8,6-5.1,12.3-6.7,18.8c-1.6,5.8-2.2,11.9-1.8,17.9c0,1.5,0.6,2.9,1.5,4c0.9,0.9,2,1.6,3.2,1.9c1.3,0.4,2.7,0.5,4.1,0.4
	c1.3-0.1,2.6-0.2,3.9-0.4c4.3-0.9,8.5-2.3,12.5-4.1c4.2-1.9,8.2-4.2,12.1-6.6c3.9-2.5,7.7-5.1,11.2-7.9c3.5-2.7,6.7-5.4,9.6-7.9
	c2.9-2.5,5.4-4.7,7.6-6.7s3.8-3.4,5-4.2c2.4-2,4.2-3.1,5.4-3.5c1.6-0.3,3.1-1,4.3-2c1.2-0.9,2.9-2.3,5.1-4c1.2-0.9,2-1.2,2.2-0.9
	s-0.1,1-1,2.1c-4.1,5.3-8.5,10.4-13.1,15.3s-9.3,9.6-14.1,14.2c-2.6,2.5-5.7,5.2-9.3,8.1c-3.6,2.9-7.5,5.6-11.4,8.1
	c-3.9,2.5-8.1,4.7-12.3,6.6c-3.8,1.8-7.8,2.9-11.9,3.3c-3.8,0.5-7.6,0.1-11.3-1c-3-1-5.7-2.7-7.9-4.9c-2.1-2.2-3.8-4.8-4.9-7.7
	c-1.2-3-1.9-6.1-2.2-9.2c-0.4-6.3,0.3-12.7,2-18.8c1.8-6.9,4.3-13.7,7.5-20.1c3.3-6.8,7.2-13.4,11.6-19.6c4.3-6.1,9-11.9,14.2-17.4
	c4.6-5,9.7-9.5,15.2-13.4c4.6-3.4,9.6-6,15-7.9c5.2-1.6,10.5-2.7,15.9-3.4c11.2-1.4,22.5,0,32.9,4.2
	C770.2,93.6,775.1,96.6,779.4,100.4z"/>
<path class="st1" d="M759.4,133.5c1-0.3,2.1-0.2,3.1,0.3c1.2,0.5,2.3,1.1,3.2,1.9c1.3,0.5,2.5,1.1,3.6,2c0.9,0.6,1.6,1.4,2.2,2.4
	c0.9,2,1.6,4.1,2.1,6.2c1.3,0.5,2.6,0.8,3.9,0.9c1.5,0.1,2.8,0.3,4.1,0.5c1.2,0.1,2.3,0.6,3.4,1.2c1.2,0.6,2.6,0.9,3.9,0.6
	c1.1-0.1,1.7,0.1,1.8,0.5s-0.2,0.8-0.8,1.1c-2.5,1.1-5.1,2-7.8,2.7c-2.7,0.7-5.4,0.9-8.2,0.6c-0.5,3.7-1.5,7.3-3,10.6
	c-1.5,3.3-3.2,6.4-5.2,9.4c-1.2,1.6-2.5,3.4-4,5.2c-1.4,1.8-3,3.4-4.8,4.7c-1.7,1.3-3.6,2.3-5.7,2.9c-2.1,0.6-4.4,0.5-6.4-0.2
	c-2.3-0.7-4.4-2-6-3.8c-1.4-1.7-2.4-3.7-3-5.8c-0.6-2.2-0.8-4.5-0.7-6.8c0.1-2.3,0.4-4.6,0.8-6.9c0.8-3.3,1.9-6.4,3.2-9.5
	c1.3-3,3-5.9,5-8.6c2-2.6,4.3-5,6.8-7C753.5,136.5,756.4,134.8,759.4,133.5z M766.1,151.8c-3.6-2.2-5.5-4.9-5.8-8.2
	c-3,2.2-5.7,4.8-7.8,7.9c-2.2,3-3.9,6.2-5.2,9.6c-0.9,2.1-1.6,4.3-2.2,6.4c-0.7,2.2-0.9,4.5-0.8,6.8c0.1,1.4,0.3,2.7,0.8,4
	c0.2,0.9,0.9,1.5,1.8,1.6c1.1,0,2.2-0.5,3-1.3c1.6-1.4,3.1-3,4.4-4.8c0.4-0.5,1.1-1.4,2.1-2.9s2.1-3.2,3.4-5.3s2.5-4.3,3.7-6.8
	C764.4,156.7,765.4,154.3,766.1,151.8z"/>
<path class="st1" d="M801.2,166.8c1.4,0.7,2.7,1.6,3.8,2.7c1,1.1,1.5,1.9,1.5,2.6c-0.2,1.5-0.5,3.1-1,4.5c-0.4,1.2-1.1,2.4-2.1,3.2
	c-1,0.8-2.1,1.3-3.4,1.4c-1.7,0-3.3-0.4-4.8-1.2c-0.6-0.3-1.2-0.6-1.9-1c-0.6-0.3-1.1-0.9-1.1-1.5c-0.2-1.8,0-3.6,0.7-5.3
	c0.5-1.4,1.4-2.6,2.5-3.6c0.9-0.9,2-1.5,3.2-1.9C799.3,166.4,800.3,166.4,801.2,166.8z"/>
</svg>
