<svg id="Layer_1" data-name="Layer 1" xmlns="http://www.w3.org/2000/svg" viewBox="0 0 245.37 590.71"><defs><style>.cls-1{fill:#fff;}</style></defs><title>OH</title><path class="cls-1" d="M114.13,590.71A128.08,128.08,0,0,1-7,508.78Q-17.1,483.55-17.1,453.22q0-30,10.06-55.4a131,131,0,0,1,27.86-43.69,127.56,127.56,0,0,1,41.71-28.52,130,130,0,0,1,51.6-10.22,130,130,0,0,1,51.61,10.22,127.56,127.56,0,0,1,41.71,28.52,131,131,0,0,1,27.86,43.69q10,25.4,10.06,55.4,0,30.33-10.06,55.56a128.58,128.58,0,0,1-121.18,81.93Zm0-67.59a66.18,66.18,0,0,0,27.37-5.61,68.44,68.44,0,0,0,36.11-37.42,71.89,71.89,0,0,0-14.35-76.17,67.89,67.89,0,0,0-21.76-15.33A66.18,66.18,0,0,0,114.13,383a66.16,66.16,0,0,0-27.36,5.61A68,68,0,0,0,65,403.92a72.53,72.53,0,0,0-14.34,76.17,68.35,68.35,0,0,0,36.11,37.42A66.16,66.16,0,0,0,114.13,523.12Z"/><path class="cls-1" d="M85.78,242.88V149.56h-96V84.93H238.44v64.63H135.9v93.32H238.44V307.5H-10.18V242.88Z"/><path class="cls-1" d="M206.79,77.16a38.71,38.71,0,0,1-35.61-53.58,38.58,38.58,0,0,1,74.19,15,38.39,38.39,0,0,1-38.58,38.58ZM154,69.57H-10.18v-62H154Z"/></svg>